# xmcd
#
# Track frame offsets: 
#        150
#        16937
#        38524
#        56852
#        65043
#        86278
#        105103
#        132690
#        145758
#
# Disc length: 2351 seconds
#
# Revision: 0
# Processed by: cddbd v1.5.2PL0 Copyright (c) Steve Scherf et al.
# Submitted via: ExactAudioCopy v1.0b1
#
DISCID=72092d09
DTITLE=Miss Blues - Bad Prospects
DYEAR=2008
DGENRE=Blues
TTITLE0=Blood Running Cold
TTITLE1=Billie's Blues
TTITLE2=Bad Prospects
TTITLE3=Rub Board Boogie
TTITLE4=Trapped
TTITLE5=Midnight Cry
TTITLE6=Sinkin Sinkin Sinkin
TTITLE7=It's Gonna Rain
TTITLE8=Cold Mountains
EXTD=
EXTT0=
EXTT1=
EXTT2=
EXTT3=
EXTT4=
EXTT5=
EXTT6=
EXTT7=
EXTT8=
PLAYORDER=
